#!OML:ASF F:\VICON\USERDATA\INSTALL\rory3\rory3.ASF
:FULLY-SPECIFIED
:DEGREES
9
root 0.582322 17.8858 -25.532799999999966 -2.73562 2.7722100000000056 1.286950000000005
lfemur 0.6930039999999948 -0.6592710000000013 -26.36030000000001
ltibia 22.759400000000007
lfoot -15.263599999999988 -0.18088899999999608
ltoes -19.938700000000004
rfemur -31.23880000000002 -3.0221200000000064 21.04830000000001
rtibia 47.83970000000001
rfoot -11.373299999999995 -11.035399999999996
rtoes 3.2119099999999987
lowerback nan -1.4151400000000005 -4.515240000000005
upperback -0.6532610000000005 -2.4194099999999974 2.1232899999999995
thorax -7.771369999999999 -0.9437609999999986 5.299649999999996
lowerneck -12.853200000000001 -2.0984300000000005 -3.2864699999999987
upperneck 20.4716 -2.177880000000004 -0.08176179999999911
head 8.53492 -1.2933799999999982 0.27884299999999995
lclavicle 5.193250000000003e-15 -1.5107599999999985e-14
lhumerus -26.676999999999992 4.642109999999999 81.4179
lradius 27.7317
lwrist 9.04296
lhand -29.634 20.412099999999995
lfingers nan
lthumb -2.96404 50.3712
rclavicle 5.193250000000003e-15 -1.5107599999999985e-14
rhumerus -35.71220000000001 -19.8212 -74.9438
rradius 23.801600000000008
rwrist 5.9499600000000035
rhand -17.2875 nan
rfingers nan
rthumb 8.957910000000002 -5.936110000000001
10
root 0.5826620000000002 17.8799 -25.029899999999977 -2.24632 2.8913999999999964 1.3536999999999941
lfemur 2.9432999999999883 -0.7377819999999973 -26.401200000000006
ltibia 20.944099999999988
lfoot -15.520299999999997 -0.050155599999996525
ltoes -20.225299999999997
rfemur -31.140100000000025 -2.600309999999994 21.159199999999988
rtibia 38.3293
rfoot -7.87852 -13.840900000000001
rtoes -5.6573600000000095
lowerback nan -0.9470959999999998 -3.6576399999999936
upperback 0.5978780000000009 -1.6797399999999987 1.3210400000000004
thorax -6.10125 -0.7028430000000007 3.7508400000000055
lowerneck -17.8202 -2.748649999999999 -1.91932
upperneck 21.6073 -3.352859999999999 0.2459599999999995
head 9.84289 -1.6834699999999994 -0.05104819999999963
lclavicle -6.708980000000003e-15 -1.073440000000002e-14
lhumerus -22.049400000000002 1.6772999999999993 81.3698
lradius 27.560000000000002
lwrist 9.728129999999995
lhand -29.8355 20.2256
lfingers nan
lthumb -3.1586099999999995 50.1819
rclavicle -6.708980000000003e-15 -1.073440000000002e-14
rhumerus -34.269200000000005 -24.478199999999998 -75.1172
rradius 23.045399999999994
rwrist 7.099649999999995
rhand -17.7101 nan
rfingers nan
rthumb 8.55011 -7.35151
11
root 0.5730559999999998 17.8998 -24.5225 -1.6644700000000003 2.8239199999999958 1.5012599999999954
lfemur 5.196550000000013 -0.050284700000000626 -26.443399999999983
ltibia 18.61540000000001
lfoot -15.368100000000013 -0.948686000000003
ltoes -17.77380000000002
rfemur -30.046700000000037 -0.4635079999999987 20.467700000000008
rtibia 28.50400000000002
rfoot -5.331469999999996 -15.33199999999999
rtoes -2.3824499999999995
lowerback nan -1.3109199999999985 -4.307890000000012
upperback -0.058362300000000006 -2.217229999999998 1.67049
thorax -6.37085 -0.9230120000000009 4.573730000000002
lowerneck -15.392400000000002 -2.460729999999998 -2.4880899999999997
upperneck 20.8377 -2.8588599999999955 0.25675499999999807
head 9.12806 -1.5091400000000008 0.14960899999999983
lclavicle -3.138310000000001e-14 1.6697900000000016e-14
lhumerus -23.03879999999998 2.1410300000000015 81.3885
lradius 28.5658
lwrist 10.2576
lhand -29.7693 19.9469
lfingers nan
lthumb -3.09467 49.9042
rclavicle -3.138310000000001e-14 1.6697900000000016e-14
rhumerus -35.97099999999999 -23.947200000000002 -73.9779
rradius 22.71100000000001
rwrist 7.760820000000005
rhand -17.7061 nan
rfingers nan
rthumb 8.55396 -7.48063
12
root 0.5587529999999998 17.8525 -23.987099999999977 -1.3697100000000029 2.9007800000000072 1.9650100000000061
lfemur 8.09086999999997 0.47558599999999585 -26.825199999999988
ltibia 16.267700000000016
lfoot -17.271199999999986 0.31021400000000154
ltoes -27.659600000000044
rfemur -28.8327 2.18725 18.968699999999984
rtibia 20.5357
rfoot -5.510220000000002 -15.582099999999992
rtoes -5.345540000000008
lowerback nan -1.2068299999999976 -4.887010000000007
upperback 0.1469530000000004 -2.1341699999999983 1.5322200000000001
thorax -5.80834 -0.8901360000000015 4.711319999999999
lowerneck -16.1771 -2.6164700000000014 -2.1448700000000005
upperneck 21.1437 -3.120239999999999 0.15105899999999783
head 9.3747 -1.6127399999999992 0.011098500000000011
lclavicle 3.0811599999999907e-15 -1.3119799999999995e-14
lhumerus -21.6987 1.1818400000000002 81.6233
lradius 28.7057
lwrist 10.162800000000004
lhand -30.2585 22.814899999999998
lfingers nan
lthumb -3.56706 52.764799999999994
rclavicle 3.0811599999999907e-15 -1.3119799999999995e-14
rhumerus -36.332800000000006 -26.230300000000003 -72.76069999999999
rradius 21.721200000000007
rwrist 9.216770000000002
rhand -16.168299999999995 nan
rfingers nan
rthumb 10.037799999999997 -4.820379999999998
13
root 0.5395880000000002 17.8143 -23.456199999999953 -1.4370200000000026 3.666720000000006 1.8984000000000045
lfemur 10.076299999999998 -0.3708949999999982 -26.626199999999997
ltibia 16.194100000000017
lfoot -15.680100000000014 -0.7295509999999994
ltoes -21.36110000000002
rfemur -26.98689999999999 4.973160000000004 17.799
rtibia 14.774299999999975
rfoot -10.232199999999997 -16.21480000000001
rtoes -9.164239999999992
lowerback nan -1.450579999999997 -4.884860000000006
upperback 0.16837299999999972 -2.4601200000000025 1.5898800000000004
thorax -5.816810000000001 -1.049829999999998 4.825089999999997
lowerneck -16.3947 -2.769660000000001 -2.2920100000000003
upperneck 21.5072 -3.3476999999999983 0.37860599999999955
head 9.5523 -1.7039300000000004 0.07858300000000018
lclavicle -5.242950000000005e-15 -7.951389999999964e-16
lhumerus -21.210900000000002 -0.3938310000000036 82.1172
lradius 28.003100000000003
lwrist 8.875349999999997
lhand -32.832600000000006 15.785199999999996
lfingers nan
lthumb -6.052640000000006 45.67880000000001
rclavicle -5.242950000000005e-15 -7.951389999999964e-16
rhumerus -36.91510000000001 -26.442400000000006 -72.5339
rradius 21.781500000000015
rwrist 9.141119999999994
rhand -18.1118 nan
rfingers nan
rthumb 8.16248 -8.010080000000002
14
root 0.5066399999999998 17.7569 -22.926300000000012 -1.22591 3.824609999999992 1.692890000000006
lfemur 10.79619999999998 -1.2010600000000022 -26.27150000000001
ltibia 17.981099999999998
lfoot -17.655399999999972 0.4344089999999978
ltoes -30.007400000000064
rfemur -26.588800000000017 4.2464600000000035 18.675000000000004
rtibia 14.296100000000042
rfoot -9.984610000000004 -13.754199999999997
rtoes -8.100720000000006
lowerback nan -1.8701199999999971 -5.445950000000015
upperback -0.6061320000000009 -3.0687099999999914 2.233489999999999
thorax -6.528690000000001 -1.276729999999998 5.95343000000001
lowerneck -14.091000000000001 -2.273580000000001 -3.1078499999999973
upperneck 20.8714 -2.5151 0.35732299999999984
head 8.9063 -1.3917800000000002 0.34345599999999976
lclavicle -1.0684700000000022e-15 -4.770829999999996e-15
lhumerus -22.64969999999999 1.0414000000000048 82.4662
lradius 28.427199999999996
lwrist 8.8073
lhand -31.5338 15.737600000000006
lfingers nan
lthumb -4.798560000000002 45.663199999999996
rclavicle -1.0684700000000022e-15 -4.770829999999996e-15
rhumerus -38.41229999999999 -25.454 -71.12869999999998
rradius 21.171900000000008
rwrist 9.39650000000001
rhand -17.9637 nan
rfingers nan
rthumb 8.30533 -7.712069999999999
15
root 0.46830199999999983 17.7322 -22.37790000000009 -1.3891099999999992 3.8873200000000008 1.531740000000005
lfemur 11.86979999999996 -1.7215199999999997 -25.845000000000013
ltibia 19.822399999999995
lfoot -16.609400000000008 -1.472870000000001
ltoes -24.962700000000034
rfemur -26.92769999999998 1.3521100000000006 20.590600000000006
rtibia 18.390799999999974
rfoot -8.23534 -8.79253
rtoes -7.163340000000013
lowerback nan -1.956209999999994 -5.649039999999999
upperback -0.7564429999999991 -3.196540000000001 2.47323
thorax -6.63323 -1.3200500000000006 6.351289999999992
lowerneck -13.474800000000002 -2.17094 -3.216860000000002
upperneck 21.0646 -2.326120000000001 0.1587619999999994
head 8.85515 -1.3362800000000004 0.32219299999999995
lclavicle -3.11346e-14 -1.3517400000000001e-14
lhumerus -23.01309999999998 0.8275899999999958 82.9777
lradius 28.885499999999997
lwrist 8.881400000000001
lhand -31.6025 20.1879
lfingers nan
lthumb -4.864939999999997 50.1121
rclavicle -3.11346e-14 -1.3517400000000001e-14
rhumerus -39.40510000000001 -26.28079999999999 -69.80990000000001
rradius 20.539300000000004
rwrist 10.305799999999989
rhand -18.1691 nan
rfingers nan
rthumb 8.10715 -7.539619999999999
16
root 0.41857099999999975 17.7815 -21.779600000000045 -1.924009999999999 4.213930000000004 0.853877999999995
lfemur 13.171999999999985 -3.0576199999999982 -24.963300000000007
ltibia 21.941000000000017
lfoot -14.692199999999985 -4.385480000000001
ltoes -11.474199999999993
rfemur -26.619400000000013 1.8578700000000001 21.646600000000007
rtibia 22.229200000000013
rfoot -5.0114300000000025 -10.663900000000002
rtoes -7.70922999999999
lowerback nan -1.6801499999999991 -4.668719999999999
upperback -0.15369500000000008 -2.707369999999996 2.19706
thorax -6.13541 -1.1511000000000013 5.399480000000006
lowerneck -15.256799999999998 -2.6169199999999995 -2.2570299999999994
upperneck 21.5112 -3.0902799999999977 0.023665799999998294
head 9.332 -1.62661 -0.00042008199999982176
lclavicle 1.5057900000000004e-14 -1.3914900000000018e-14
lhumerus -22.087700000000012 -0.31823499999999827 83.0607
lradius 28.140600000000003
lwrist 6.668810000000001
lhand -33.0496 13.737699999999988
lfingers nan
lthumb -6.262110000000005 43.62509999999999
rclavicle 1.5057900000000004e-14 -1.3914900000000018e-14
rhumerus -39.7522 -29.16939999999999 -69.27519999999998
rradius 20.228499999999997
rwrist 11.105200000000014
rhand -18.4863 nan
rfingers nan
rthumb 7.8009900000000005 -7.98287
